<?xml version="1.0" encoding="UTF-8"?>
<svg version="1.1" xmlns="http://www.w3.org/2000/svg" width="512" height="512">
<path d="M0 0 C8.22113321 7.32292139 15.84623647 14.80982469 21.57421875 24.29296875 C22.23035156 25.36675781 22.88648438 26.44054687 23.5625 27.546875 C27.66429577 34.56720045 30.62885663 41.70774707 33.01171875 49.48046875 C33.25865479 50.27501465 33.50559082 51.06956055 33.76000977 51.88818359 C35.07505215 56.46529941 35.78585204 60.85416887 36.14477539 65.60668945 C36.22740128 66.67514603 36.31002716 67.7436026 36.39515686 68.84443665 C36.4837925 70.05646004 36.4837925 70.05646004 36.57421875 71.29296875 C37.93271942 71.27631416 37.93271942 71.27631416 39.31866455 71.25932312 C47.85269936 71.15914819 56.3865368 71.08301761 64.92102432 71.03390789 C69.30876999 71.00781106 73.69602997 70.97241226 78.08349609 70.91577148 C82.31752038 70.86145351 86.55107747 70.83154886 90.78542328 70.81858253 C92.4010224 70.80934214 94.01659588 70.79129738 95.63199615 70.76431847 C97.89487494 70.72802823 100.15582246 70.72302297 102.41894531 70.7253418 C103.70690002 70.71423874 104.99485474 70.70313568 106.32183838 70.69169617 C109.57421875 71.29296875 109.57421875 71.29296875 111.98822021 73.69734192 C114.421803 77.68011531 114.16013619 79.67886889 113.57421875 84.29296875 C111.82421875 86.79296875 111.82421875 86.79296875 109.57421875 88.29296875 C108.25421875 88.29296875 106.93421875 88.29296875 105.57421875 88.29296875 C105.57421875 152.31296875 105.57421875 216.33296875 105.57421875 282.29296875 C107.22421875 282.62296875 108.87421875 282.95296875 110.57421875 283.29296875 C112.6702164 285.09986327 113.43518887 286.46726688 113.89453125 289.1953125 C114.09923226 292.85946056 113.96947077 294.72832301 111.82421875 297.79296875 C109.57421875 299.29296875 109.57421875 299.29296875 105.57421875 299.29296875 C105.57421875 342.52296875 105.57421875 385.75296875 105.57421875 430.29296875 C91.65911133 430.29913208 91.65911133 430.29913208 77.46289062 430.30541992 C47.74086491 430.32209701 18.01891808 430.36329632 -11.7030575 430.41982437 C-16.32401065 430.42859055 -20.94496417 430.43714046 -25.56591797 430.44555664 C-26.94577247 430.44807523 -26.94577247 430.44807523 -28.35350281 430.45064471 C-43.22541012 430.47727474 -58.09727888 430.48640692 -72.96920758 430.48901018 C-88.24258615 430.49207555 -103.51585374 430.51408961 -118.78918219 430.55349332 C-128.20472321 430.57719332 -137.62004232 430.58632083 -147.03560901 430.57648186 C-153.50256563 430.57114362 -159.9693244 430.58430177 -166.4362247 430.61163165 C-170.16079054 430.62683751 -173.88491325 430.63424663 -177.60949135 430.61956596 C-192.40798091 430.5663779 -205.55419114 430.7382625 -219.42578125 436.29296875 C-227.72761479 438.40797621 -235.9497245 438.67868424 -244.48828125 438.66796875 C-246.39722168 438.6666394 -246.39722168 438.6666394 -248.34472656 438.6652832 C-259.05895573 438.53145724 -269.32790305 437.40009402 -279.39376736 433.53785992 C-285.35353675 431.30273987 -290.66599717 430.85101529 -296.99438477 430.8605957 C-298.02633689 430.85032191 -299.05828901 430.84004812 -300.12151241 430.82946301 C-303.43263184 430.79978453 -306.74345393 430.79006583 -310.0546875 430.78125 C-312.11064679 430.76576953 -314.16659659 430.7489701 -316.22253418 430.73083496 C-323.81101188 430.67308872 -331.39966606 430.64079654 -338.98828125 430.60546875 C-355.96265625 430.50234375 -372.93703125 430.39921875 -390.42578125 430.29296875 C-390.42578125 377.49296875 -390.42578125 324.69296875 -390.42578125 270.29296875 C-392.40578125 269.63296875 -394.38578125 268.97296875 -396.42578125 268.29296875 C-398.87504767 264.61906912 -399.25611425 261.56088039 -398.42578125 257.29296875 C-396.11328125 254.29296875 -396.11328125 254.29296875 -393.42578125 252.29296875 C-392.43578125 252.29296875 -391.44578125 252.29296875 -390.42578125 252.29296875 C-390.42578125 198.17296875 -390.42578125 144.05296875 -390.42578125 88.29296875 C-392.07578125 87.96296875 -393.72578125 87.63296875 -395.42578125 87.29296875 C-397.23828125 86.23046875 -397.23828125 86.23046875 -398.42578125 84.29296875 C-399.17841599 77.62677534 -399.17841599 77.62677534 -396.96107864 73.69724751 C-393.27150228 70.1983404 -390.28052505 70.60918895 -385.3649292 70.69169617 C-384.43862867 70.68742404 -383.51232813 70.68315192 -382.55795789 70.67875034 C-379.44667901 70.67049883 -376.33674109 70.69804154 -373.22558594 70.7253418 C-370.99842358 70.7267518 -368.7712589 70.72596123 -366.5440979 70.72312927 C-360.49060616 70.72169185 -354.43760753 70.75113494 -348.38423061 70.78599906 C-342.06080548 70.81720799 -335.73736966 70.820189 -329.41387939 70.8261261 C-318.79795775 70.83991219 -308.18223136 70.87116516 -297.56640625 70.91577148 C-286.63217068 70.96166795 -275.69798433 70.99705938 -264.76367188 71.01831055 C-264.08966177 71.01962416 -263.41565166 71.02093778 -262.72121701 71.02229121 C-259.33989975 71.0288164 -255.95858215 71.03513494 -252.57726431 71.04135072 C-224.52664382 71.09318277 -196.4762238 71.18161885 -168.42578125 71.29296875 C-168.30025879 70.36137939 -168.17473633 69.42979004 -168.04541016 68.4699707 C-167.78896729 66.61311646 -167.78896729 66.61311646 -167.52734375 64.71875 C-167.36057129 63.49841064 -167.19379883 62.27807129 -167.02197266 61.02075195 C-164.23111479 43.57046174 -156.74541263 27.75942677 -145.42578125 14.29296875 C-144.74 13.44476563 -144.05421875 12.5965625 -143.34765625 11.72265625 C-107.91658809 -30.13849465 -41.91925629 -34.89896216 0 0 Z " fill="#1497FB" transform="translate(398.42578125,73.70703125)"/>
<path d="M0 0 C1.37865234 1.03060547 1.37865234 1.03060547 2.78515625 2.08203125 C7.27150717 5.58403513 11.20199151 9.13724072 14.86767578 13.50170898 C20.96733233 20.71500982 27.37393534 24.16514363 35.90625 27.99951172 C39.45895635 29.69715522 42.80126278 31.74655127 46.1875 33.75 C52.87300055 37.6266448 59.49317745 40.09115052 67 42 C68.09699219 42.35835938 69.19398438 42.71671875 70.32421875 43.0859375 C74.58498006 44.14546794 78.38518252 44.26369266 82.75 44.1875 C83.54494873 44.1781543 84.33989746 44.16880859 85.15893555 44.15917969 C87.44007736 44.12297477 89.71956933 44.06677766 92 44 C93.56427734 43.95552734 93.56427734 43.95552734 95.16015625 43.91015625 C109.90731567 43.01967976 122.82259813 36.21561513 135.35253906 28.90820312 C158.10868575 15.64318759 182.87670795 11.38937219 208.66845703 17.37939453 C221.55529197 20.80958662 233.24985238 26.87705891 244.58325195 33.78686523 C254.2044465 39.58947157 264.87546874 43.80996153 276.19921875 44.1640625 C277.33496338 44.20430542 277.33496338 44.20430542 278.49365234 44.24536133 C280.0156158 44.28942744 281.53843786 44.31084477 283.06103516 44.30737305 C286.86945911 44.40659137 288.63927463 44.66711013 291.48046875 47.2890625 C293.77029097 51.37424661 293.58951911 53.35753702 293 58 C291.25 60.5 291.25 60.5 289 62 C287.68 62 286.36 62 285 62 C285 105.23 285 148.46 285 193 C271.08489258 193.00616333 271.08489258 193.00616333 256.88867188 193.01245117 C227.16664616 193.02912826 197.44469933 193.07032757 167.72272375 193.12685562 C163.1017706 193.1356218 158.48081708 193.14417171 153.85986328 193.15258789 C152.48000878 193.15510648 152.48000878 193.15510648 151.07227844 193.15767596 C136.20037113 193.18430599 121.32850237 193.19343817 106.45657367 193.19604143 C91.1831951 193.1991068 75.90992751 193.22112086 60.63659906 193.26052457 C51.22105804 193.28422457 41.80573893 193.29335208 32.39017224 193.28351311 C25.92321562 193.27817487 19.45645685 193.29133302 12.98955655 193.3186629 C9.26499071 193.33386876 5.540868 193.34127788 1.8162899 193.32659721 C-12.98219966 193.27340915 -26.12840989 193.44529375 -40 199 C-48.30183354 201.11500746 -56.52394325 201.38571549 -65.0625 201.375 C-66.97144043 201.37367065 -66.97144043 201.37367065 -68.91894531 201.37231445 C-79.63317448 201.23848849 -89.9021218 200.10712527 -99.96798611 196.24489117 C-105.9277555 194.00977112 -111.24021592 193.55804654 -117.56860352 193.56762695 C-118.60055564 193.55735316 -119.63250776 193.54707937 -120.69573116 193.53649426 C-124.00685059 193.50681578 -127.31767268 193.49709708 -130.62890625 193.48828125 C-132.68486554 193.47280078 -134.74081534 193.45600135 -136.79675293 193.43786621 C-144.38523063 193.38011997 -151.97388481 193.34782779 -159.5625 193.3125 C-176.536875 193.209375 -193.51125 193.10625 -211 193 C-211 140.2 -211 87.4 -211 33 C-212.98 32.34 -214.96 31.68 -217 31 C-219.47526759 27.28709862 -219.75322402 24.30174607 -219 20 C-217.3125 17 -217.3125 17 -214 15 C-196.33672366 12.27045953 -176.52041677 19.10191898 -161.63671875 28.1171875 C-160.01655967 29.15824201 -160.01655967 29.15824201 -158 29 C-156.74966403 27.42283761 -155.57557958 25.78498678 -154.4375 24.125 C-136.9872015 -0.29916332 -111.17916042 -15.20799152 -81.8203125 -20.58203125 C-52.79712573 -23.75736968 -23.52251127 -17.92353907 0 0 Z " fill="#020201" transform="translate(219,311)"/>
<path d="M0 0 C1.69757446 -0.0151062 1.69757446 -0.0151062 3.42944336 -0.03051758 C21.43390376 0.1539624 35.94977927 7.41008324 51.28271484 16.07202148 C59.55959434 20.70579858 67.86879635 24.27133501 77.0625 26.625 C78.28324219 26.94855469 79.50398438 27.27210938 80.76171875 27.60546875 C87.22368137 28.7709201 93.8233237 29.00072158 100.375 29.4375 C100.375 72.6675 100.375 115.8975 100.375 160.4375 C-1.265 160.4375 -102.905 160.4375 -207.625 160.4375 C-204.35411334 157.984335 -201.77047256 156.48824142 -198.125 154.8125 C-173.65860492 142.75788929 -156.67986581 121.18661339 -146.75 96.3125 C-146.47583252 95.63364746 -146.20166504 94.95479492 -145.91918945 94.25537109 C-141.42700673 82.39801701 -140.13693714 70.60650924 -140.25 58 C-140.23839844 56.71029297 -140.22679687 55.42058594 -140.21484375 54.09179688 C-140.24705687 43.37019824 -141.38877093 32.73056369 -145.375 22.6875 C-146.625 19.4375 -146.625 19.4375 -145.625 16.4375 C-144.77679688 16.89640625 -143.92859375 17.3553125 -143.0546875 17.828125 C-120.15758893 29.91389399 -94.23556442 31.9845945 -69.33935547 24.70922852 C-59.67007764 21.69729927 -51.08681927 17.17858126 -42.34375 12.12109375 C-28.25215632 3.99013649 -16.31992172 0.09429633 0 0 Z " fill="#FDB616" transform="translate(403.625,343.5625)"/>
<path d="M0 0 C8.22113321 7.32292139 15.84623647 14.80982469 21.57421875 24.29296875 C22.23035156 25.36675781 22.88648438 26.44054687 23.5625 27.546875 C27.66429577 34.56720045 30.62885663 41.70774707 33.01171875 49.48046875 C33.25865479 50.27501465 33.50559082 51.06956055 33.76000977 51.88818359 C35.07505215 56.46529941 35.78585204 60.85416887 36.14477539 65.60668945 C36.22740128 66.67514603 36.31002716 67.7436026 36.39515686 68.84443665 C36.4837925 70.05646004 36.4837925 70.05646004 36.57421875 71.29296875 C37.93271942 71.27631416 37.93271942 71.27631416 39.31866455 71.25932312 C47.85269936 71.15914819 56.3865368 71.08301761 64.92102432 71.03390789 C69.30876999 71.00781106 73.69602997 70.97241226 78.08349609 70.91577148 C82.31752038 70.86145351 86.55107747 70.83154886 90.78542328 70.81858253 C92.4010224 70.80934214 94.01659588 70.79129738 95.63199615 70.76431847 C97.89487494 70.72802823 100.15582246 70.72302297 102.41894531 70.7253418 C103.70690002 70.71423874 104.99485474 70.70313568 106.32183838 70.69169617 C109.57421875 71.29296875 109.57421875 71.29296875 111.98822021 73.69734192 C114.421803 77.68011531 114.16013619 79.67886889 113.57421875 84.29296875 C112.06497955 86.50760221 112.06497955 86.50760221 109.57421875 88.29296875 C106.66351394 88.68487929 104.13204861 88.83052816 101.2220459 88.79633331 C100.36768857 88.80214708 99.51333124 88.80796084 98.6330843 88.81395078 C95.7505501 88.82862847 92.86885708 88.81462941 89.98632812 88.80090332 C87.90682284 88.80550916 85.8273208 88.81185993 83.74782562 88.8198123 C78.01810431 88.83657222 72.28864812 88.828229 66.55892563 88.81586742 C60.38570065 88.80684646 54.21252244 88.82077195 48.03930664 88.83178711 C36.6398319 88.84857761 25.24046572 88.84707776 13.84099364 88.83614124 C3.31089746 88.8260881 -7.21916758 88.82344796 -17.74926758 88.82823181 C-18.4471309 88.82853735 -19.14499422 88.82884289 -19.86400491 88.82915769 C-22.69669615 88.830403 -25.52938737 88.83167659 -28.36207858 88.83299675 C-54.94736065 88.84523907 -81.53258862 88.83412889 -108.11786234 88.81260916 C-131.7491768 88.79362602 -155.38040505 88.79532451 -179.01171875 88.81445312 C-205.54765903 88.83586101 -232.08355149 88.84437093 -258.61949921 88.83200407 C-261.44709777 88.83072116 -264.27469634 88.8294698 -267.10229492 88.82823181 C-267.79854707 88.8279155 -268.49479922 88.82759919 -269.21214992 88.8272733 C-279.73690536 88.822719 -290.26162629 88.8280527 -300.78637695 88.83815002 C-312.75075435 88.84957112 -324.71502988 88.84637565 -336.67940331 88.82502705 C-342.78818927 88.81448746 -348.8967999 88.81044427 -355.00558472 88.82362366 C-360.59156759 88.83549319 -366.17721168 88.82907514 -371.76316357 88.80771345 C-373.79001624 88.80322423 -375.81689721 88.80556518 -377.84373188 88.8152166 C-380.58743776 88.82728514 -383.3299653 88.81500336 -386.0736084 88.79633331 C-387.26901639 88.81038031 -387.26901639 88.81038031 -388.48857403 88.82471108 C-391.9787732 88.7768595 -394.04435621 88.56637256 -396.91654205 86.50760221 C-398.74098769 83.83043986 -398.90603058 81.59729231 -398.95703125 78.390625 C-398.13021305 75.12590901 -396.87599036 73.6206973 -394.42578125 71.29296875 C-391.41256978 70.54723958 -388.45554576 70.63982083 -385.3649292 70.69169617 C-384.43862867 70.68742404 -383.51232813 70.68315192 -382.55795789 70.67875034 C-379.44667901 70.67049883 -376.33674109 70.69804154 -373.22558594 70.7253418 C-370.99842358 70.7267518 -368.7712589 70.72596123 -366.5440979 70.72312927 C-360.49060616 70.72169185 -354.43760753 70.75113494 -348.38423061 70.78599906 C-342.06080548 70.81720799 -335.73736966 70.820189 -329.41387939 70.8261261 C-318.79795775 70.83991219 -308.18223136 70.87116516 -297.56640625 70.91577148 C-286.63217068 70.96166795 -275.69798433 70.99705938 -264.76367188 71.01831055 C-264.08966177 71.01962416 -263.41565166 71.02093778 -262.72121701 71.02229121 C-259.33989975 71.0288164 -255.95858215 71.03513494 -252.57726431 71.04135072 C-224.52664382 71.09318277 -196.4762238 71.18161885 -168.42578125 71.29296875 C-168.30025879 70.36137939 -168.17473633 69.42979004 -168.04541016 68.4699707 C-167.78896729 66.61311646 -167.78896729 66.61311646 -167.52734375 64.71875 C-167.36057129 63.49841064 -167.19379883 62.27807129 -167.02197266 61.02075195 C-164.23111479 43.57046174 -156.74541263 27.75942677 -145.42578125 14.29296875 C-144.74 13.44476563 -144.05421875 12.5965625 -143.34765625 11.72265625 C-107.91658809 -30.13849465 -41.91925629 -34.89896216 0 0 Z " fill="#000000" transform="translate(398.42578125,73.70703125)"/>
<path d="M0 0 C16.04904095 11.94347233 27.13382999 26.8988675 33.51953125 45.875 C33.95265625 47.1125 34.38578125 48.35 34.83203125 49.625 C35.51953125 52.875 35.51953125 52.875 35.51953125 61.875 C-20.25046875 61.875 -76.02046875 61.875 -133.48046875 61.875 C-130.94688832 39.07277612 -121.18645752 19.73199018 -103.80859375 4.5390625 C-91.68073056 -5.06489402 -78.52108099 -10.88238323 -63.48046875 -14.125 C-62.69800781 -14.31707031 -61.91554688 -14.50914063 -61.109375 -14.70703125 C-39.47608713 -18.14649901 -17.970769 -12.07032161 0 0 Z " fill="#FDD23E" transform="translate(381.48046875,83.125)"/>
<path d="M0 0 C16.10586518 0 30.8330618 2.12479635 44 12 C43.82984375 12.53625 43.6596875 13.0725 43.484375 13.625 C40.99659747 21.67057839 39.00339371 29.82398785 37 38 C36.73195557 38.90745972 36.73195557 38.90745972 36.45849609 39.83325195 C30.99006005 65.67583443 39.11948176 93.66323216 52 116 C54.79433419 120.18381046 57.8068472 124.1140954 61 128 C61.69867188 128.86367188 62.39734375 129.72734375 63.1171875 130.6171875 C74.01653622 143.43290522 88.0796052 151.64107225 103 159 C103 159.33 103 159.66 103 160 C69.01 160 35.02 160 0 160 C0 107.2 0 54.4 0 0 Z " fill="#FAB518" transform="translate(8,344)"/>
<path d="M0 0 C2.44248312 -0.10919154 4.82542885 -0.05023421 7.26708984 0.07250977 C8.11207031 0.09506836 8.95705078 0.11762695 9.82763672 0.14086914 C11.91237782 0.19976013 13.99620789 0.28944179 16.07958984 0.38500977 C26.09454334 20.38090188 33.88669102 39.40897879 38.07958984 61.38500977 C38.30646484 62.54129883 38.53333984 63.69758789 38.76708984 64.88891602 C40.54321538 75.33598773 40.27608644 85.82558513 40.07958984 96.38500977 C29.1565079 101.94094774 18.51552846 102.77408849 6.39208984 102.76000977 C5.16562744 102.76057373 3.93916504 102.7611377 2.67553711 102.76171875 C-6.74354013 102.6479062 -15.01660341 101.46852559 -23.92041016 98.38500977 C-24.91041016 98.05500977 -25.90041016 97.72500977 -26.92041016 97.38500977 C-27.51465708 78.32508985 -25.77446017 59.61198714 -19.92041016 41.38500977 C-19.67806641 40.61979004 -19.43572266 39.85457031 -19.18603516 39.06616211 C-15.40695584 27.29590465 -10.8539202 16.233014 -4.92041016 5.38500977 C-4.34613281 3.93868164 -4.34613281 3.93868164 -3.76025391 2.46313477 C-1.92041016 0.38500977 -1.92041016 0.38500977 0 0 Z " fill="#EC2748" transform="translate(146.92041015625,391.614990234375)"/>
<path d="M0 0 C0.39832031 0.83144531 0.79664063 1.66289062 1.20703125 2.51953125 C1.73683594 3.60621094 2.26664063 4.69289063 2.8125 5.8125 C3.33457031 6.89144531 3.85664062 7.97039062 4.39453125 9.08203125 C5.77590767 11.97513775 5.77590767 11.97513775 7.76171875 13.57421875 C9 15 9 15 8.9140625 17.23828125 C7.75104143 20.75219533 6.10378089 23.92922712 4.375 27.1875 C-7.19372879 49.76450767 -13.98300656 73.94518494 -16.625 99.125 C-16.82609375 100.98898437 -16.82609375 100.98898437 -17.03125 102.890625 C-17.35820918 105.92667456 -17.68103304 108.96310218 -18 112 C-35.29763645 103.58603219 -48.35311622 85.64141481 -55 68 C-56.51251132 63.37231636 -57.80998368 58.72001665 -59 54 C-59.226875 53.15308594 -59.45375 52.30617188 -59.6875 51.43359375 C-60.22312493 49.29481364 -60.63297382 47.17328988 -61 45 C-61.16628906 44.31035156 -61.33257812 43.62070312 -61.50390625 42.91015625 C-62.1221664 38.58233518 -61.32862763 36.48754427 -58.859375 32.82421875 C-56.10101698 29.36295675 -53.09503991 26.15991228 -50 23 C-49.26007813 22.23171875 -48.52015625 21.4634375 -47.7578125 20.671875 C-35.67660426 9.09215087 -16.85272019 0 0 0 Z " fill="#FCD13E" transform="translate(121,367)"/>
<path d="M0 0 C21.09212169 0.54591374 39.79822512 12.03697938 54.015625 26.859375 C54.99789062 27.91898437 54.99789062 27.91898437 56 29 C56.55171875 29.56203125 57.1034375 30.1240625 57.671875 30.703125 C61.27700151 34.87535006 61.79713221 38.81983863 61.5390625 44.24609375 C57.82361112 70.11963559 44.9350859 92.20355413 24.8125 108.8046875 C20.47987288 112 20.47987288 112 18 112 C17.97421875 111.08863281 17.9484375 110.17726563 17.921875 109.23828125 C16.61689158 79.43127358 8.15119171 48.74850973 -6.38183594 22.68334961 C-9.14562789 17.54468613 -9.14562789 17.54468613 -8.3984375 14.75 C-7.93695313 14.1725 -7.47546875 13.595 -7 13 C-6.5978125 12.35160156 -6.195625 11.70320313 -5.78125 11.03515625 C-5.3584375 10.38417969 -4.935625 9.73320312 -4.5 9.0625 C-2.6398131 6.1268068 -1.13537479 3.30290849 0 0 Z " fill="#74E4FD" transform="translate(186,367)"/>
<path d="M0 0 C1.27018478 -0.01409912 2.54036957 -0.02819824 3.8490448 -0.04272461 C5.24917961 -0.03300392 6.64931088 -0.02276313 8.04943848 -0.01205444 C9.52974014 -0.01883254 11.01003338 -0.02773676 12.49031067 -0.03860474 C16.50489573 -0.06138241 20.51883773 -0.05256849 24.53343391 -0.03670931 C28.73649949 -0.0240422 32.93951036 -0.03579266 37.14257812 -0.04364014 C44.20066199 -0.05273437 51.25848419 -0.04075485 58.31652832 -0.01693726 C66.47432917 0.01027376 74.6315052 0.00145943 82.7892909 -0.02606928 C89.79583566 -0.04876592 96.80219243 -0.05195778 103.80876207 -0.03887594 C107.99241915 -0.03108441 112.17578262 -0.03003142 116.35942078 -0.04655838 C120.29295761 -0.06101218 124.22568966 -0.0509659 128.15913963 -0.0220871 C129.60188143 -0.01548098 131.04469106 -0.01736601 132.48740578 -0.02840042 C134.45813183 -0.04208254 136.42900606 -0.02187435 138.3996582 0 C139.50208107 0.00188513 140.60450394 0.00377026 141.74033356 0.00571251 C145.69535967 0.84657371 147.2120577 2.51227073 149.6998291 5.63491821 C150.23399813 9.44087252 150.25552266 11.62937749 148.3873291 15.00991821 C145.1976028 18.08150651 141.83552616 17.76584637 137.63343811 17.78208923 C136.3645575 17.78924454 135.09567688 17.79639984 133.78834534 17.80377197 C132.37936426 17.80661216 130.97038292 17.8093239 129.56140137 17.81192017 C128.0797815 17.81818552 126.59816321 17.82483239 125.11654663 17.83183289 C120.24978731 17.85286057 115.38302771 17.86323149 110.51623535 17.87319946 C108.84131288 17.87724698 107.16639057 17.8813639 105.49146843 17.88554955 C97.62552874 17.90459542 89.75959842 17.91882983 81.8936401 17.92716151 C72.80838904 17.93694342 63.72338099 17.96329014 54.6382156 18.00366241 C47.61819103 18.03378969 40.59823629 18.04862701 33.57814831 18.05194253 C29.38386849 18.05429619 25.18984848 18.06329781 20.99563789 18.0884037 C17.05163071 18.11163154 13.10805542 18.11593929 9.16399765 18.10564232 C7.71597166 18.10514561 6.26792479 18.11150583 4.81996346 18.12519836 C2.84445543 18.14283577 0.86876104 18.13345247 -1.10679626 18.12266541 C-2.21273856 18.12505376 -3.31868086 18.12744211 -4.45813656 18.12990284 C-7.9997718 17.5130718 -9.17346984 16.49398258 -11.3001709 13.63491821 C-12.07420936 8.21664898 -12.07420936 8.21664898 -11.3001709 5.63491821 C-7.70889346 1.29732191 -5.62135461 0.00961244 0 0 Z " fill="#000101" transform="translate(225.3001708984375,178.36508178710938)"/>
<path d="M0 0 C1.74969841 -0.00856522 1.74969841 -0.00856522 3.53474426 -0.01730347 C4.81585587 -0.01842133 6.09696747 -0.01953918 7.41690063 -0.02069092 C8.77867263 -0.02531984 10.14044333 -0.0303446 11.50221252 -0.03573608 C15.20266531 -0.04885409 18.90309996 -0.05530375 22.60357237 -0.05974674 C24.9154316 -0.06267815 27.22728587 -0.06678306 29.53914261 -0.07125092 C36.77237308 -0.08492363 44.00559223 -0.09459166 51.23883474 -0.09845281 C59.58882073 -0.10293459 67.93864311 -0.12048894 76.28857934 -0.1494534 C82.74302041 -0.17106575 89.19741543 -0.18115683 95.6518923 -0.18249393 C99.50689777 -0.18354218 103.36174939 -0.18945441 107.21671677 -0.20731354 C110.84304157 -0.22378684 114.46909675 -0.22595349 118.09544563 -0.21717453 C120.05898624 -0.21603653 122.02251787 -0.22975924 123.98600769 -0.243927 C125.15811295 -0.23835785 126.3302182 -0.2327887 127.5378418 -0.22705078 C128.55437017 -0.22851734 129.57089855 -0.2299839 130.61823082 -0.2314949 C133.86992484 0.20391429 135.74845546 1.23574866 138.39590454 3.14044189 C140.4611899 6.09084955 141.00260205 8.58692794 140.39590454 12.14044189 C138.75588519 14.71462615 138.00541406 15.7065601 135.39590454 17.14044189 C130.83814235 17.90755679 126.28104206 17.81394234 121.67300415 17.77154541 C120.26004641 17.776686 118.84709508 17.78396833 117.43415833 17.79322815 C113.60348759 17.81173154 109.77351348 17.79881163 105.94287181 17.77913785 C101.93286891 17.76274415 97.92290988 17.77156509 93.91288757 17.7766571 C87.18014403 17.78117675 80.44767842 17.7653151 73.71499634 17.73736572 C65.93100232 17.70530121 58.1475092 17.70533488 50.36347955 17.72258049 C42.8738991 17.73844244 35.3845023 17.73171506 27.89492989 17.71464348 C24.70797398 17.70777083 21.52116519 17.70880752 18.33421135 17.71618843 C14.58214376 17.72384813 10.83064653 17.71173635 7.07867622 17.68433952 C5.70163288 17.67745165 4.3245363 17.67736211 2.94749451 17.68455505 C1.06834872 17.69323992 -0.8108642 17.67486741 -2.68992615 17.65510559 C-3.7416504 17.65229867 -4.79337465 17.64949175 -5.87696934 17.64659977 C-9.28875251 17.01336873 -10.47264148 15.82189498 -12.60409546 13.14044189 C-13.33214497 10.39954962 -13.17852787 7.91022983 -12.60409546 5.14044189 C-9.10773571 0.43844085 -5.59412994 0.01638223 0 0 Z " fill="#000203" transform="translate(277.6040954589844,212.85955810546875)"/>
<path d="M0 0 C17.86353897 7.09795208 31.84040518 23.60425749 40.796875 40.16015625 C41.11930176 40.75393066 41.44172852 41.34770508 41.77392578 41.95947266 C44.01509095 46.32167557 45.18435816 50.53134866 46.234375 55.28515625 C43.23336776 53.89542807 40.79004105 52.2326095 38.171875 50.22265625 C25.51378311 41.39699975 12.48187333 36.2947853 -2.84423828 34.39599609 C-5.73067701 33.95100943 -8.11566499 33.51849252 -10.765625 32.28515625 C-12.83331045 29.46113146 -13.72878697 26.59293332 -14.765625 23.28515625 C-15.425625 22.29515625 -16.085625 21.30515625 -16.765625 20.28515625 C-16.765625 13.29713762 -14.44951795 9.36312673 -9.765625 4.28515625 C-3.81777843 -0.98679866 -3.81777843 -0.98679866 0 0 Z " fill="#FACF3D" transform="translate(196.765625,317.71484375)"/>
<path d="M0 0 C5.26440377 1.87737929 9.7104637 6.64664536 12.625 11.3203125 C15.01361311 16.79421754 14.44184638 21.34762803 12.375 26.8828125 C10.72881864 30.06909672 9.47243362 32.19307217 6.08740234 33.61181641 C0.9906837 34.98340073 -4.23106289 35.62189928 -9.45019531 36.35253906 C-22.30668437 38.50132801 -35.25652755 46.17369615 -45.16796875 54.375 C-46.875 55.7578125 -46.875 55.7578125 -48.875 56.7578125 C-45.91159268 43.63856136 -38.87792512 31.63907178 -29.875 21.7578125 C-28.99070312 20.78070313 -28.10640625 19.80359375 -27.1953125 18.796875 C-8.55600952 -1.10515123 -8.55600952 -1.10515123 0 0 Z " fill="#73E2FB" transform="translate(112.875,317.2421875)"/>
<path d="M0 0 C1.24501785 -0.00960754 2.49003571 -0.01921509 3.77278137 -0.02911377 C5.13847674 -0.03396208 6.50417423 -0.03824083 7.86987305 -0.04199219 C9.26751203 -0.04774443 10.66515098 -0.05350215 12.06278992 -0.05926514 C14.99580249 -0.0697762 17.92878765 -0.07561786 20.86181641 -0.07910156 C24.61454332 -0.08458029 28.3669063 -0.10859411 32.11951923 -0.13707352 C35.00806219 -0.15572843 37.89651809 -0.16090705 40.7851162 -0.16243744 C42.16817396 -0.16545912 43.55123036 -0.17347137 44.9342289 -0.18662262 C46.87274588 -0.20373737 48.81141302 -0.19995021 50.75 -0.1953125 C52.40307915 -0.20078094 52.40307915 -0.20078094 54.08955383 -0.20635986 C58.42944584 0.32891727 61.02004973 2.11209075 64.0690918 5.16113281 C64.5065918 8.47363281 64.5065918 8.47363281 64.0690918 12.16113281 C61.53177984 15.39493804 60.02811941 16.96791177 55.95115662 17.7893219 C54.78407669 17.79028366 53.61699677 17.79124542 52.41455078 17.79223633 C51.4428595 17.80296928 51.4428595 17.80296928 50.45153809 17.81391907 C48.32202442 17.83075279 46.19463198 17.81144166 44.06518555 17.79003906 C42.57975592 17.79086817 41.0943264 17.79332916 39.60890198 17.79734802 C36.50103018 17.80020219 33.39388062 17.78554187 30.28613281 17.75805664 C26.30558046 17.72394344 22.32631656 17.73000481 18.34570217 17.74871922 C15.28039332 17.75929404 12.21538365 17.75034778 9.15010262 17.7353344 C7.68251497 17.73015758 6.21489601 17.73062835 4.74731255 17.73687935 C2.69560553 17.74233914 0.64573578 17.72193871 -1.40576172 17.69458008 C-2.57204605 17.6883815 -3.73833038 17.68218292 -4.93995667 17.67579651 C-8.53973379 17.05637002 -9.71787457 16.00902607 -11.9309082 13.16113281 C-12.65862053 10.42150994 -12.51062397 7.92899142 -11.9309082 5.16113281 C-8.36788387 0.52920118 -5.64252691 0.03503536 0 0 Z " fill="#000305" transform="translate(259.930908203125,246.8388671875)"/>
<path d="M0 0 C1.53642151 -0.00006042 1.53642151 -0.00006042 3.10388184 -0.00012207 C5.26576892 0.00523056 7.42765568 0.02280217 9.58935547 0.05175781 C12.89481191 0.09360519 16.19822959 0.09282535 19.50390625 0.0859375 C21.60678497 0.09643067 23.7096532 0.10936945 25.8125 0.125 C26.79907593 0.12520142 27.78565186 0.12540283 28.80212402 0.12561035 C35.12759951 0.23448494 38.80732567 0.99482567 43.40625 5.59375 C43.94839065 9.6985292 43.93268958 11.81682309 41.58422852 15.28271484 C36.8985219 18.69017423 32.78064578 18.31209028 27.12109375 18.2578125 C26.02785294 18.26259613 24.93461212 18.26737976 23.8082428 18.27230835 C21.50097207 18.27570586 19.1936531 18.26651402 16.88647461 18.24560547 C13.35226394 18.21881454 9.82122202 18.24537418 6.28710938 18.27734375 C4.04426382 18.27404013 1.80142023 18.2676349 -0.44140625 18.2578125 C-2.02744408 18.27299423 -2.02744408 18.27299423 -3.64552307 18.28848267 C-10.93124146 18.17185752 -10.93124146 18.17185752 -14.25561523 15.27099609 C-16.0399292 11.70106599 -16.22727212 9.53566541 -15.59375 5.59375 C-11.33978859 -0.49664522 -6.82572109 -0.11343222 0 0 Z " fill="#000102" transform="translate(408.59375,178.40625)"/>
<path d="M0 0 C5.16711765 2.87062091 8.60317181 6.66085613 10.82421875 12.15234375 C11.94428866 16.8805077 11.05956427 20.24889428 8.63671875 24.40234375 C5.72206813 28.60505527 2.74388481 31.51245506 -2.17578125 33.15234375 C-7.1443844 33.67400432 -11.03097104 33.72474885 -15.55078125 31.46484375 C-19.81459696 27.70862515 -22.80247429 24.50144046 -23.44921875 18.69921875 C-23.65565705 13.0142257 -23.51239617 9.01045105 -19.71875 4.58984375 C-14.01014923 -0.72854886 -7.56174267 -2.9459572 0 0 Z " fill="#3DCC00" transform="translate(160.17578125,341.84765625)"/>
<path d="M0 0 C2.10084701 -0.01718633 4.2001085 -0.06106997 6.30053711 -0.10522461 C7.64232244 -0.1153545 8.98412112 -0.12386968 10.32592773 -0.13061523 C12.15281128 -0.15248901 12.15281128 -0.15248901 14.01660156 -0.17480469 C17.91449401 0.38203709 19.53314351 1.55821466 22.30639648 4.29516602 C23.75070503 7.18378311 23.68328154 9.09164303 23.30639648 12.29516602 C20.62744681 15.77024123 19.14175233 17.14596441 14.77294922 17.92626953 C13.4288812 17.95228969 12.08405724 17.9501446 10.73999023 17.92407227 C10.02408218 17.92648422 9.30817413 17.92889618 8.5705719 17.93138123 C7.0635929 17.93040548 5.55657685 17.91707644 4.04980469 17.89208984 C1.74672592 17.85770825 -0.55252688 17.87145682 -2.85571289 17.89086914 C-4.32382813 17.88397179 -5.7919335 17.87430038 -7.26000977 17.86157227 C-8.28826622 17.86901207 -8.28826622 17.86901207 -9.33729553 17.87660217 C-12.71801832 17.79349975 -14.43358363 17.49946922 -17.125 15.38476562 C-19.29480712 12.49427859 -19.26157176 10.69897171 -19.09204102 7.19750977 C-18.48464774 4.29750463 -17.02860559 3.01207931 -14.69360352 1.29516602 C-10.41224282 -0.84551433 -4.75223888 0.02709877 0 0 Z " fill="#000306" transform="translate(360.693603515625,246.704833984375)"/>
<path d="M0 0 C3.34425629 2.57250484 4.81699852 4.62748893 5.375 8.8125 C4.86214403 13.17177572 3.34405633 14.20457791 0 17 C-2.70943338 18.37848978 -5.49278732 19.35764108 -8.375 20.3125 C-9.10460937 20.57611328 -9.83421875 20.83972656 -10.5859375 21.11132812 C-15.16364503 22.68491509 -19.10220103 23.4751596 -24 23 C-26.96593118 20.74331324 -28.58516544 19.01115924 -30 15.5625 C-30 11.79886442 -29.2179826 10.06603477 -27 7 C-24.15118491 5.21274337 -21.16865657 4.10022798 -18 3 C-16.74703125 2.54947266 -16.74703125 2.54947266 -15.46875 2.08984375 C-10.15411094 0.326499 -5.59127934 -0.67480958 0 0 Z " fill="#000000" transform="translate(475,100)"/>
<path d="M0 0 C2.69990662 1.79993774 4.5418865 3.083773 6 6 C6.72939089 14.01207841 1.83291958 19.44185301 -2.953125 25.453125 C-8.43385545 31.85498662 -8.43385545 31.85498662 -13.375 32.3125 C-17 32 -17 32 -19.375 30.125 C-22.07653512 26.59222331 -22.35157328 24.44604981 -22 20 C-17.84474464 11.23481088 -10.77607841 -1.05647828 0 0 Z " fill="#000000" transform="translate(421,27)"/>
<path d="M0 0 C3.83180427 3.38896332 6.84326794 7.25356749 9.75 11.4375 C10.14832031 11.98470703 10.54664063 12.53191406 10.95703125 13.09570312 C13.46953417 16.69411833 14.75140749 19.60612745 15 24 C13.39588152 27.52906067 12.25840638 28.82772908 9 31 C5.12044818 31.43106131 2.87127416 31.57711407 -0.4296875 29.390625 C-3.35773882 26.66727027 -5.55432263 23.68699819 -7.75 20.375 C-8.14832031 19.78976563 -8.54664063 19.20453125 -8.95703125 18.6015625 C-12.32111552 13.62955999 -13.90789379 10.11315155 -13 4 C-9.07817102 -1.09837768 -6.15820587 -1.46126919 0 0 Z " fill="#000000" transform="translate(252,28)"/>
<path d="M0 0 C2.21875896 0.65617618 4.37897546 1.40195592 6.55053711 2.19995117 C7.28723633 2.44422852 8.02393555 2.68850586 8.78295898 2.94018555 C13.39130518 4.58453672 16.10353387 6.18287996 18.73803711 10.51245117 C19.21314365 14.39248793 19.04013201 17.28951831 16.73803711 20.51245117 C12.35678745 23.16352581 8.57761143 22.54950281 3.73803711 21.51245117 C1.10954932 20.78472935 -1.4789922 20.02890728 -4.07446289 19.19995117 C-4.72068604 18.99942139 -5.36690918 18.7988916 -6.03271484 18.59228516 C-10.00069824 17.25687133 -12.73324628 15.89031706 -15.26196289 12.51245117 C-16.25498143 8.36513845 -15.90517371 4.65904438 -13.82446289 0.94995117 C-9.52574685 -1.46152368 -4.74925918 -1.02366655 0 0 Z " fill="#000000" transform="translate(201.261962890625,100.487548828125)"/>
<path d="M0 0 C-1.82631427 3.8633571 -4.15286596 7.2631843 -6.5625 10.78125 C-7.87331116 12.80445853 -8.97081281 14.82287326 -10 17 C-10.6909375 16.83757812 -11.381875 16.67515625 -12.09375 16.5078125 C-15.28281453 15.95058348 -18.2636637 15.86743847 -21.5 15.875 C-22.6034375 15.87242187 -23.706875 15.86984375 -24.84375 15.8671875 C-27.68492244 15.98674179 -30.23807642 16.35074185 -33 17 C-33.38671875 16.25234375 -33.7734375 15.5046875 -34.171875 14.734375 C-34.69265625 13.74953125 -35.2134375 12.7646875 -35.75 11.75 C-36.26046875 10.77546875 -36.7709375 9.8009375 -37.296875 8.796875 C-38.94890242 6.08391255 -40.74985393 4.2110131 -43 2 C-43 1.34 -43 0.68 -43 0 C-28.97688375 -3.67819443 -14.13349458 -2.58230244 0 0 Z " fill="#E62646" transform="translate(175,309)"/>
<path d="M0 0 C2.96858157 2.20740681 3.82865791 3.48597373 5 7 C5.25288202 10.26639276 5.23127135 13.53732767 5.25 16.8125 C5.270625 17.70259766 5.29125 18.59269531 5.3125 19.50976562 C5.34345867 24.73017179 5.06680435 28.55525361 2 33 C-1.6316146 34.61405093 -3.85206219 35.26089496 -7.75 34.375 C-10.31466782 32.807703 -11.42718465 31.55471888 -13 29 C-13.6443004 25.04466983 -13.50947856 21.06482233 -13.5 17.0625 C-13.52835937 15.97775391 -13.55671875 14.89300781 -13.5859375 13.77539062 C-13.60540823 5.85567132 -13.60540823 5.85567132 -10.72265625 1.78125 C-6.59163112 -0.92140059 -4.86154386 -0.69450627 0 0 Z " fill="#000000" transform="translate(337,0)"/>
</svg>
